PathFileType	4	(X/Y/Z)	C:/Users/beibeiliu/ov580/test_trc/User3\sequence.23_training_dense_right.trc
DataRate	CameraRate	NumFrames	NumMarkers	Units	OrigDataRate	OrigDataStartFrame	OrigNumFrames
120	120	16	19	mm	120	61	91
Frame#	Time	ThumbCMC			ThumbMCP			ThumbIP			ThumbTip			IndexMCP			IndexPIP			IndexTip			MiddleMCP			MiddlePIP			MiddleTip			RingMCP			RingPIP			RingTip			PinkyMCP			PinkyPIP			PinkyTip			BackHand1			BackHand2			BackHand3	
		X0	Y0	Z0	X1	Y1	Z1	X2	Y2	Z2	X3	Y3	Z3	X4	Y4	Z4	X5	Y5	Z5	X6	Y6	Z6	X7	Y7	Z7	X8	Y8	Z8	X9	Y9	Z9	X10	Y10	Z10	X11	Y11	Z11	X12	Y12	Z12	X13	Y13	Z13	X14	Y14	Z14	X15	Y15	Z15	X16	Y16	Z16	X17	Y17	Z17	X18	Y18	Z18	
60	0.5	185.117	-39.3284	-0.780364	189.915	-49.4597	-26.5728	202.49	-57.5331	-51.8381	213.768	-58.6834	-69.6177	166.511	-83.1252	-65.2855	154.264	-66.9901	-88.686	137.735	-46.772	-100.47	149.666	-91.6523	-58.8297	137.801	-76.6061	-83.0171	114.713	-50.4612	-100.966	126.229	-92.3114	-50.2853	114.847	-80.0891	-67.212	101.503	-58.5804	-83.1028	110.425	-91.8076	-31.519	105.292	-78.4596	-52.9856	92.8138	-64.0805	-64.9419	148.682	-96.1597	6.87917	150.876	-79.2999	34.8921	178.788	-76.3411	8.59227	
61	0.508333	204.025	-36.8959	0.980937	216.993	-37.2061	-22.2253	233.344	-45.1075	-46.6099	241.959	-48.049	-61.6287	210.827	-81.9311	-56.0384	192.779	-77.6188	-83.5998	176.48	-63.0165	-98.4703	191.611	-99.1945	-52.3233	180.569	-89.048	-82.2126	158.945	-73.3626	-102.971	175.749	-103.632	-46.317	163.343	-100.031	-65.7876	144.53	-88.9541	-85.7993	158.303	-108.364	-34.6728	146.768	-102.588	-49.015	135.409	-91.7876	-73.1192	187.194	-98.6805	9.66917	180.942	-81.6782	36.8108	210.335	-66.5664	13.8718	
62	0.516667	214.1	-18.7335	1.04506	227.641	-17.3513	-22.7402	248.213	-18.3452	-47.7559	257.194	-12.8704	-61.8598	239.494	-62.5012	-54.7231	225.862	-64.6644	-79.7971	203.813	-59.3931	-101.415	231.013	-83.3989	-57.5542	218.085	-79.4376	-80.835	190.596	-78.0375	-104.807	216.997	-96.1974	-43.4302	205.486	-94.6153	-69.7699	184.773	-94.5667	-90.9393	203.301	-107.89	-31.6099	193.274	-104.47	-52.682	181.378	-101.013	-73.6834	224.72	-81.1629	12.2176	209.748	-70.8869	39.004	230.248	-47.0744	12.5593	
63	0.525	209.674	-1.84467	-3.49693	221.374	5.99547	-26.6873	236.38	15.1653	-50.5416	244.491	24.4584	-68.5762	248.215	-31.8853	-59.9074	235.196	-34.3694	-88.4482	215.492	-47.418	-104.579	249.232	-52.6018	-59.1074	236.598	-56.0354	-82.1046	211.65	-67.2444	-109.674	243.734	-70.5116	-47.3307	231.938	-76.8534	-70.1475	215.278	-82.8812	-90.5531	237.929	-85.8748	-36.2187	228.774	-85.9837	-53.9785	217.363	-92.9611	-75.5488	249.373	-54.3742	6.02455	227.857	-49.6001	34.2167	235.484	-18.5197	7.65403	
64	0.533333	185.394	4.65438	-2.05855	193.389	22.596	-30.6776	198.079	34.0282	-53.5882	203.735	44.681	-72.1995	229.629	3.47776	-66.9541	218.011	-9.45865	-95.3663	206.39	-26.6822	-111.496	239.268	-14.9753	-68.534	229.873	-28.6368	-90.9833	211.092	-41.2562	-115.86	245.426	-36.0922	-57.6814	236.624	-49.2277	-82.9322	223.767	-57.3561	-99.4716	247.38	-51.2387	-47.2052	239.049	-59.3437	-66.3666	232.086	-69.9839	-84.7384	247.606	-23.9056	-3.02516	230.511	-28.1735	26.8157	219.904	1.47201	4.60337	
65	0.541667	152.313	4.13948	-4.92421	149.291	18.7741	-29.7935	145.5	34.9638	-53.4024	142.855	43.6844	-71.9242	186.488	21.3153	-72.2588	182.81	5.03501	-98.6982	175.9	-9.29647	-116.722	206.563	7.46355	-79.1158	198.14	-4.12794	-98.9288	184.812	-21.2194	-123.016	216.087	-4.91811	-70.5941	211.291	-16.512	-91.8046	202.209	-32.7325	-112.996	227.586	-18.9058	-60.4395	223.275	-31.2174	-80.0909	217.478	-39.4862	-96.4953	219.114	3.29447	-10.1911	208.013	-8.57668	18.1425	188.761	16.3971	-1.81369	
66	0.55	128.451	-1.29037	-6.2987	119.07	10.4065	-29.2816	109.485	28.3263	-54.6506	103.86	35.1862	-71.3832	152.064	22.1462	-78.6916	145.231	12.1638	-101.227	141.652	-8.52282	-124.154	171.348	18.339	-81.5161	165.189	4.34441	-105.922	157.123	-18.3887	-131.742	188.077	6.42037	-80.3574	184.072	-6.32112	-102.191	177.175	-21.4242	-119.697	202.785	-2.24926	-68.7313	199.391	-11.7685	-85.2593	196.361	-27.0081	-107.724	195.124	16.6601	-20.8872	190.434	1.09672	8.05948	159.496	16.9823	-4.65784	
67	0.558333	112.591	-6.73297	-6.62767	101.274	2.82211	-30.9414	91.4106	16.1279	-56.2349	77.6766	21.517	-70.3678	128.858	17.2061	-81.6311	121.142	2.76103	-105.348	120.636	-18.9019	-123.395	144.036	13.3121	-89.4324	141.979	-0.971824	-109.709	135.068	-24.0718	-131.912	167.453	6.8851	-81.3589	161.672	-6.54179	-103.697	156.207	-27.0538	-122.61	184.65	-1.88417	-74.5519	175.775	-12.9693	-96.3344	174.313	-27.8784	-112.09	173.729	16.6965	-24.698	177.603	3.74278	5.12681	139.473	17.6189	-10.465	
68	0.566667	103.349	-12.9354	-8.28283	91.4521	-8.06329	-31.5144	72.1276	1.62366	-56.6696	61.5463	5.4674	-71.898	113.961	7.01886	-82.5734	109.405	-10.3872	-106.222	102.389	-37.4608	-117.474	132.97	2.42402	-94.5284	127.465	-15.5523	-111.649	120.367	-44.5306	-129.049	154.148	-2.99746	-87.3387	146.278	-19.4342	-106.372	139.265	-46.3097	-121.932	169.336	-9.26031	-79.2418	163.635	-21.9601	-94.4777	155.337	-45.625	-110.419	159.241	13.8359	-29.9338	165.436	4.86036	-3.05463	132.126	13.3367	-15.3808	
69	0.575	101.527	-13.7238	-13.1648	86.0225	-13.6874	-33.9681	67.9711	-7.6039	-61.3256	56.396	-9.05157	-74.1288	102.806	-7.44216	-89.5198	97.4335	-30.4696	-106.265	93.4546	-60.0273	-104.295	123.787	-11.3178	-95.1611	115.939	-35.0332	-111.047	113.97	-71.0654	-115.258	146.037	-16.7502	-88.1791	137.529	-38.5228	-104.117	133.945	-71.5597	-106.324	160.075	-23.7859	-81.8811	159.734	-43.5567	-93.391	148.149	-67.682	-95.2705	156.138	7.9174	-38.9152	156.184	3.16603	-4.45088	122.883	8.4768	-16.7196	
70	0.583333	98.844	-12.3845	-12.6451	83.5178	-13.9248	-38.4356	63.9966	-10.5659	-62.4698	52.8745	-11.4069	-78.2483	102.523	-22.2071	-91.9654	90.0959	-48.3837	-99.9095	84.0434	-75.483	-79.4206	123.555	-28.5184	-94.9966	108.024	-52.9724	-104.106	102.774	-87.9209	-93.6541	139.01	-34.8821	-86.7026	129.411	-60.6755	-96.7584	116.582	-87.834	-84.0355	155.296	-43.3738	-79.7902	145.901	-68.0131	-84.3721	131.272	-84.1418	-77.6574	155.306	-3.80398	-44.6823	156.886	-1.66108	-13.6246	125.393	8.9092	-25.6971	
71	0.591667	98.5666	-5.08732	-16.0964	81.1735	-4.68241	-38.0418	69.9499	-6.14576	-67.0673	54.0412	-3.64176	-83.8578	98.7796	-28.1577	-88.5878	84.1462	-57.9297	-89.2606	73.0578	-72.2734	-65.9114	113.262	-42.4906	-91.0609	97.7872	-65.469	-93.4095	80.454	-94.6486	-70.8578	131.682	-52.27	-81.1187	119.564	-77.1399	-81.1695	97.5816	-95.8176	-61.1077	148.497	-60.5873	-68.5332	131.936	-78.8702	-72.0186	113.737	-91.552	-59.0337	157.593	-13.1658	-42.7643	157.724	-7.23812	-9.5776	127.861	4.6731	-25.742	
72	0.6	102.052	4.61256	-13.6863	87.0978	5.9964	-42.8127	75.6674	6.3178	-69.3475	62.5189	9.37606	-86.295	98.7261	-27.9776	-83.91	72.3881	-52.9724	-82.3364	59.8614	-64.7638	-56.9419	107.11	-46.9834	-83.0133	85.2703	-68.0557	-81.7528	60.7485	-83.4087	-63.0095	121.538	-57.6309	-72.1747	96.8109	-76.8635	-70.2855	77.2868	-91.0002	-50.0251	133.83	-67.8833	-59.4434	109.058	-82.8731	-58.1755	87.6076	-91.6855	-44.5816	155.656	-23.3251	-40.1374	159.432	-16.2136	-12.6618	131.18	4.58833	-31.7666	
73	0.608333	108.32	14.2942	-16.9235	93.2312	22.5124	-40.6766	83.0228	20.2422	-67.5564	73.4634	25.706	-84.9518	92.2289	-21.8995	-80.2195	61.9942	-32.5042	-79.0322	42.4191	-42.7028	-60.1951	96.3158	-41.6015	-76.0432	71.8971	-52.7666	-73.51	40.6174	-61.9132	-58.3941	106.618	-55.0236	-63.7768	79.462	-70.0753	-60.7347	53.6989	-73.9116	-46.2488	114.642	-70.008	-49.0372	89.8222	-78.5301	-46.5079	63.4783	-78.972	-39.4339	147.026	-30.4353	-36.8367	154.66	-20.3477	-5.23463	135.735	4.16562	-26.4261	
74	0.616667	113.988	22.0369	-13.7543	103.321	28.5113	-41.592	93.3102	31.9078	-66.2264	85.0357	37.0797	-86.0981	87.0282	-11.1572	-75.3008	54.9156	-13.9114	-75.7378	32.8384	-19.1703	-60.7061	83.9316	-30.9786	-69.455	55.5762	-35.3939	-66.8871	26.0587	-34.9502	-56.7181	90.3417	-47.554	-56.3266	58.0188	-50.7556	-53.0333	35.9938	-48.7479	-45.4592	92.8296	-62.312	-41.2703	65.8391	-61.5441	-40.5763	43.0802	-55.186	-37.5984	137.193	-37.7072	-31.2085	147.51	-25.1018	0.508325	137.572	0.733413	-27.3348	
75	0.625	121.821	26.8125	-14.4787	114.38	36.1656	-39.4322	105.903	40.5033	-66.322	101.537	47.9747	-88.4134	82.6582	0.266635	-73.4959	55.2589	6.84399	-74.7946	29.8862	14.1602	-66.6463	79.1522	-16.6275	-67.1333	47.6966	-9.27513	-67.265	15.3477	0.22676	-57.4492	71.0703	-33.8779	-52.3625	50.5159	-27.3068	-53.1124	23.2783	-17.7011	-45.2702	74.6836	-48.7949	-36.0224	53.0938	-42.8914	-36.0416	28.314	-31.541	-35.7405	124.041	-38.8109	-25.8945	136.488	-28.381	4.15103	138.341	-1.08454	-25.7173	
